<svg id="圖層_1" data-name="圖層 1" xmlns="http://www.w3.org/2000/svg" viewBox="0 0 24 24"><title>GCH-logo-name-24px-1</title><path d="M5.56193,15.16643v.36169a.147.147,0,0,1-.28987,0v-.36169H4.25572a.11847.11847,0,0,1-.13456-.11656.12948.12948,0,0,1,.13456-.13148H5.27206v-.19131c-.12256,0-.25113-.003-.39169-.006-.22421-.006-.34661-.11956-.35261-.287-.00308-.09265-.006-.17039-.006-.24513s.00292-.14939.006-.22713a.30159.30159,0,0,1,.3317-.28695c.12256-.003.29895-.006.48734-.006.22713,0,.47226.003.66048.006a.29879.29879,0,0,1,.31694.266q.00876.10761.00892.22413c0,.08973-.00308.17939-.00892.266a.30836.30836,0,0,1-.33478.29c-.15547.003-.293.006-.42751.006v.19131H6.59027a.12539.12539,0,0,1,.12839.12856.11845.11845,0,0,1-.12839.11948Zm.3557-1.73064v.07774a.1272.1272,0,0,1-.1404.12248.12357.12357,0,0,1-.13764-.11357v-.08665H5.17641v.07774a.12576.12576,0,0,1-.14056.12248.12246.12246,0,0,1-.13456-.11357v-.08665l-.62174.003a.12425.12425,0,0,1-.13439-.12257.12258.12258,0,0,1,.13439-.12256l.62174.003v-.14048a.1266.1266,0,0,1,.14056-.11656.11952.11952,0,0,1,.13456.11656v.14048h.46318v-.14048a.1266.1266,0,0,1,.14056-.11656.122.122,0,0,1,.13748.11656v.14048l.64264-.003a.12166.12166,0,0,1,.13148.12256.12335.12335,0,0,1-.13148.12257Zm.13747.57391c-.00291-.06874-.04182-.10765-.12856-.11057-.10748-.003-.275-.006-.44534-.006-.20914,0-.43044.003-.56791.006-.09566.00292-.12257.05374-.12549.11357,0,.02391-.00308.04482-.00308.06874H6.0551Zm-1.27038.28695c0,.16739.018.1973.13165.20022.11656.003.26.003.41243.003.20622,0,.42735,0,.60082-.003.11949,0,.12856-.07766.12856-.20022Z" fill="#231815"/><path d="M8.12863,15.4863a.13289.13289,0,0,1-.14656.12256c-.07473,0-.14639-.03883-.14639-.12256v-.003l.01183-1.11191a2.75265,2.75265,0,0,1-.27787.41843.15543.15543,0,0,1-.12257.06283.14151.14151,0,0,1-.14347-.13157.1457.1457,0,0,1,.04782-.10165,2.64611,2.64611,0,0,0,.49609-.76521v-.01191l-.3137.006H7.53073a.12138.12138,0,0,1-.12548-.12857.12448.12448,0,0,1,.12856-.13156H7.8446L7.83568,13.101v-.003a.13649.13649,0,0,1,.14947-.12856.13115.13115,0,0,1,.14348.12856v.003s-.006.22421-.00908.48717h.21222a.127.127,0,0,1,.13164.13156.12559.12559,0,0,1-.12856.12857H8.33177l-.21514-.006c0,.07773-.00308.15839-.00308.22713.07782,0,.34986.17339.34986.28695a.14341.14341,0,0,1-.13456.14048.10866.10866,0,0,1-.08673-.04782,1.46646,1.46646,0,0,0-.12857-.1494c.00308.46326.01508,1.18365.01508,1.18365ZM8.816,14.33248V14.452c0,.19131-.00291.50517-.00291.70247A2.637,2.637,0,0,0,9.10006,15.02a.12511.12511,0,0,1,.06274-.018.1218.1218,0,0,1,.11948.11956.1409.1409,0,0,1-.08057.11957,3.34567,3.34567,0,0,1-.86686.34378.13255.13255,0,0,1-.13456-.13748.13109.13109,0,0,1,.10457-.12856c.07781-.01792.15547-.03883.23021-.06275,0-1.49159,0-1.67989.006-1.916a.27842.27842,0,0,1,.30187-.269c.11056-.006.22129-.006.32878-.006.11056,0,.21821,0,.31986.006a.28789.28789,0,0,1,.29587.266c.006.15839.012.34078.012.51416,0,.06574,0,.13149-.00292.19131a.323.323,0,0,1-.32294.28987c-.05675.003-.11057.006-.16731.006a1.63172,1.63172,0,0,0,.08965.31087,2.33308,2.33308,0,0,0,.33786-.24813.11554.11554,0,0,1,.07766-.02983.1548.1548,0,0,1,.14347.14648c0,.07465-.06873.14939-.46026.32878a1.19546,1.19546,0,0,0,.49609.44834.15015.15015,0,0,1,.08966.13156.152.152,0,0,1-.1584.1494,1.50827,1.50827,0,0,1-.87577-1.23747C8.9715,14.33848,8.89384,14.33548,8.816,14.33248Zm.70847-.75621-.00891-.15248c-.012-.12256-.06874-.12548-.35878-.12548-.269,0-.34078,0-.34078.12848,0,.05083-.00291.09865-.00291.14948ZM8.816,13.8094v.28395c.08674.003.19439.006.296.006.10457,0,.20622-.003.281-.006.13148-.00592.1344-.09857.1344-.28395Z" fill="#231815"/><path d="M13.11045,13.80348l-.46934-.009a2.08829,2.08829,0,0,1-.43627.99534,1.8582,1.8582,0,0,0,.95343.45135.14044.14044,0,0,1,.12857.14056.18021.18021,0,0,1-.17931.1823,1.945,1.945,0,0,1-1.09107-.56491,2.06732,2.06732,0,0,1-1.15074.60374.16843.16843,0,0,1-.17347-.16739.14363.14363,0,0,1,.13456-.14048,1.81427,1.81427,0,0,0,.99234-.51708,2.37412,2.37412,0,0,1-.30187-.50817c-.22713.20922-.30494.21521-.33478.21521a.15269.15269,0,0,1-.15547-.14647.18372.18372,0,0,1,.11657-.15839.98406.98406,0,0,0,.34969-.31387.1127.1127,0,0,1,.09873-.05382.15737.15737,0,0,1,.16148.13456c0,.01491,0,.02683-.03.08665a1.73115,1.73115,0,0,0,.275.53208,1.76779,1.76779,0,0,0,.32586-.77721c-.08673,0-.16731-.003-.25112-.003-.293,0-.60666.009-1.19856.018h-.00308a.12932.12932,0,0,1-.13748-.13456.14145.14145,0,0,1,.14056-.14648l.96851.003-.00308-.41551a.144.144,0,0,1,.15839-.13748.14249.14249,0,0,1,.15855.13748l-.00308.41551.95652-.003a.134.134,0,0,1,.13456.14348.12836.12836,0,0,1-.13148.13756Z" fill="#231815"/><path d="M14.50534,15.45338l.03-1.38394c-.29295.30495-.35278.33178-.4126.33178a.16093.16093,0,0,1-.15547-.15839.14619.14619,0,0,1,.0629-.11957,2.94911,2.94911,0,0,0,.83687-.99534.13952.13952,0,0,1,.12564-.08074.17223.17223,0,0,1,.17023.1584.157.157,0,0,1-.02383.07773,4.634,4.634,0,0,1-.31387.45435l-.018,1.71572a.14471.14471,0,0,1-.1524.14948.14168.14168,0,0,1-.14947-.14648Zm1.75463-.541a.13064.13064,0,0,1,.14056-.13748.15149.15149,0,0,1,.16731.15239c0,.31987-.11948.55008-.3946.58591a2.70843,2.70843,0,0,1-.28388.01491c-.32878,0-.5919-.05674-.5919-.37061,0-.12256,0-1.88011.006-1.96985a.14825.14825,0,0,1,.293.006c0,.05974-.00308.42743-.006.825a4.99284,4.99284,0,0,0,.62466-.3706.12788.12788,0,0,1,.07473-.02692.16687.16687,0,0,1,.15256.16739.16336.16336,0,0,1-.08074.13748,5.63022,5.63022,0,0,1-.77413.37961c-.00308.3856-.006.73238-.006.7862.006.13448.12256.1554.31386.1554.23913,0,.36461-.006.36461-.31687v-.01791Z" fill="#231815"/><path d="M18.06746,13.77057c.02691,0,.05074.003.06874.003a.25.25,0,0,1,.266.24213c.00292.11956.00892.245.00892.36461,0,.35277,0,.46034-.4901.46034-.07473,0-.14947-.003-.1973-.006,0,.03591-.00308.22721-.00308.3856.12565-.03582.25113-.07173.34386-.09865-.06582-.08365-.0689-.11056-.0689-.12548a.12055.12055,0,0,1,.12856-.10765.14084.14084,0,0,1,.09565.03591c.07182.06874.293.31087.293.42744a.1436.1436,0,0,1-.1404.14647.13152.13152,0,0,1-.11965-.08673.80572.80572,0,0,0-.05382-.09865,7.56244,7.56244,0,0,1-.86086.278.13621.13621,0,0,1-.12548-.14347c0-.09265.0389-.10465.25112-.15548v-.23613c0-.3856.00292-.9356.00584-1.04616.00308-.09266.0509-.24213.32294-.24213v-.16739c0-.07174.06874-.10765.13748-.10765s.13748.03591.13748.10765Zm1.55134.01791V13.66c-.00292-.12556-.04783-.13156-.1464-.13156-.11365-.003-.26-.006-.4006-.006-.37661,0-.4006.003-.4006.16139,0,.03291.00308.07182.00308.11365v.003a.11378.11378,0,0,1-.12256.11357.12081.12081,0,0,1-.12565-.11957c0-.05082-.00292-.10765-.00292-.17039a.14776.14776,0,0,1-.11364.05383c-.05675,0-.10749-.02991-.22714-.20922-.11656-.17639-.12256-.18539-.14947-.18539a.04805.04805,0,0,0-.03875.01792,3.2287,3.2287,0,0,1-.38568.49925.156.156,0,0,1-.263-.08374.12882.12882,0,0,1,.04782-.09565,2.6466,2.6466,0,0,0,.37353-.45734.29461.29461,0,0,1,.25112-.14648.32961.32961,0,0,1,.26.14348,3.60717,3.60717,0,0,0,.248.29895l.00908.01192c.05074-.18231.20022-.18231.559-.18231l-.00308-.1913v-.003a.1431.1431,0,0,1,.284,0v.1943c.11348,0,.22113.003.31986.006a.267.267,0,0,1,.281.269c.00292.05074.00292.11057.00292.16439,0,.07174-.00292.18231-.13456.18231a.11738.11738,0,0,1-.12548-.11957Zm-1.895.60982c0,.09265.00292.17931.00292.22413.03583.003.10765.003.17931.003.06874,0,.14056,0,.16747-.003.08673-.00591.08673-.06574.08673-.22413Zm.43643-.2063c0-.04782-.00308-.09265-.00308-.13148-.00292-.06874-.012-.08673-.21513-.08673-.14348,0-.2093,0-.2153.09265V14.192Zm.74414.36469c0,.05383.00308.11657.00308.14948.10457,0,.23913-.003.36461-.003.47826,0,.49317.09865.49317.40952,0,.07174-.00292.14647-.00584.21521a.253.253,0,0,1-.26312.23613c-.08673.003-.1793.006-.272.006-.11056,0-.21513-.003-.293-.006-.18822-.009-.281-.10465-.28387-.26-.00308-.18539-.00308-.42451-.00308-.66656s0-.48726.00308-.67256c.00291-.14947.09565-.23321.28387-.23613.07782-.003.17639-.003.26912-.003.06566,0,.13148,0,.17931.003.14347.00592.254.07766.26.21222.00308.06574.006.12548.006.1853,0,.272-.02092.37061-.50809.37061-.07182,0-.15256,0-.23021-.00292A.37048.37048,0,0,0,18.90433,14.55669Zm.29-.28995c.17331,0,.18823-.04183.18823-.14648,0-.14647-.00292-.1733-.21222-.1733-.17039,0-.254.00591-.257.08665-.00308.06274-.00308.15247-.00308.22121C19,14.25774,19.11071,14.26674,19.19436,14.26674Zm-.281.9416c.006.10457.07165.10457.31986.10457.266,0,.266-.02092.266-.21222,0-.14939-.012-.15839-.23621-.15839-.11056,0-.23313.003-.35277.006C18.91033,15.02,18.91033,15.1426,18.91341,15.20834Z" fill="#231815"/><circle cx="12.33933" cy="9.089" r="2.44557" fill="#c9e5d4"/><circle cx="12.33933" cy="9.089" r="2.44557" fill="#c9e5d4"/><path d="M9.91427,8.835a1.84032,1.84032,0,0,0,.79639.77763.84983.84983,0,0,1-.84-.01524A1.61538,1.61538,0,0,1,9.215,8.24487,1.26409,1.26409,0,0,1,10.7066,9.45214C10.41089,9.2753,10.2138,9.01413,9.91427,8.835Z" fill="#7dc37d"/><path d="M14.64165,9.91028l-.0086.022.00764-.02293Z" fill="#2b532f"/><path d="M14.64069,9.90932l-.00764.02293c-.01528.03915-.03056.0764-.04584.1146a2.44328,2.44328,0,0,1-3.314,1.24348q-.10171-.053-.2063-.11174l-.01337-.0086-.19483-.1337c.03438-.042.0659-.085.10028-.12607a2.24819,2.24819,0,0,1,1.5491-.81084c.12511-.01051.24831-.04393.41927-.0764-.90444-.18433-1.24826-.13276-2.37713.73539v-.001A1.53621,1.53621,0,0,1,12.0439,9.1109,3.94213,3.94213,0,0,1,14.64069,9.90932Z" fill="#2b532f"/><path d="M10.85868,11.03629l.19483.1337c-.11842.26646-.38775.83854-.50522,1.11551-.07354.17286-.1891.29129-.37438.20247-.20152-.09646-.148-.26837-.0468-.4145C10.36779,11.72584,10.596,11.36578,10.85868,11.03629Z" fill="#2b532f"/><path d="M1.788,16.95527l-.04183.00616a.159.159,0,0,0-.04248.012.05731.05731,0,0,0-.02756.02756.10134.10134,0,0,0-.0081.04183v.07133q0,.07782.001.10506l.00227.04474a.97738.97738,0,0,1-.17185.05966.70963.70963,0,0,1-.168.02075.44908.44908,0,0,1-.1699-.03307.42494.42494,0,0,1-.14266-.09411A.45523.45523,0,0,1,.921,17.0673.51519.51519,0,0,1,.88466,16.87a.53982.53982,0,0,1,.03469-.195.46573.46573,0,0,1,.09825-.156.43531.43531,0,0,1,.14688-.10093.46485.46485,0,0,1,.18255-.036.43762.43762,0,0,1,.13553.01881.4876.4876,0,0,1,.10181.04539l.02659-.04409h.05188l.00584.32164H1.6155a.89933.89933,0,0,0-.03372-.10473.37111.37111,0,0,0-.05188-.0924.241.241,0,0,0-.07766-.06518.23008.23008,0,0,0-.10943-.02431.25523.25523,0,0,0-.2187.11226.39723.39723,0,0,0-.06112.13432.70047.70047,0,0,0-.0214.17979.63218.63218,0,0,0,.02108.1652.41771.41771,0,0,0,.06144.134.29134.29134,0,0,0,.10068.09087.28042.28042,0,0,0,.137.03307.29748.29748,0,0,0,.10425-.01751.18955.18955,0,0,0,.06646-.037.45447.45447,0,0,0,.00552-.06809l.00032-.05837v-.05058a.14285.14285,0,0,0-.00746-.04831.05136.05136,0,0,0-.0308-.0308.21028.21028,0,0,0-.058-.0146q-.03648-.00486-.05739-.00616v-.04734H1.788Z" fill="#231815"/><path d="M2.43308,16.76527a.1084.1084,0,0,1-.01622.05869.05507.05507,0,0,1-.04993.02561.07536.07536,0,0,1-.05544-.01881.057.057,0,0,1-.01913-.0415.12763.12763,0,0,1,.00227-.02594L2.29884,16.74a.14294.14294,0,0,0-.07133.02464.2107.2107,0,0,0-.06939.07v.37223a.06976.06976,0,0,0,.00875.037.05282.05282,0,0,0,.02756.0214.17336.17336,0,0,0,.04183.00973l.04442.00454v.0428H1.94347v-.0428l.0308-.0026a.11976.11976,0,0,0,.02757-.00519.047.047,0,0,0,.02691-.02042.07257.07257,0,0,0,.00875-.03786V16.819a.09167.09167,0,0,0-.0094-.03956.0799.0799,0,0,0-.02626-.031.0888.0888,0,0,0-.02919-.01135.26925.26925,0,0,0-.03631-.00486v-.0428l.2127-.01427.00908.00908v.09014h.00324a.28977.28977,0,0,1,.08949-.07977.189.189,0,0,1,.09014-.02723.08822.08822,0,0,1,.06647.02658A.09879.09879,0,0,1,2.43308,16.76527Z" fill="#231815"/><path d="M3.19278,17.31064q-.03041.01107-.0535.01784a.18354.18354,0,0,1-.05221.00681.12708.12708,0,0,1-.08073-.02367.10967.10967,0,0,1-.03859-.06907H2.96386a.31541.31541,0,0,1-.09046.07134.253.253,0,0,1-.11641.02464.16472.16472,0,0,1-.11834-.0441.15237.15237,0,0,1-.04637-.11543.19936.19936,0,0,1,.01038-.06614.15983.15983,0,0,1,.03112-.05253.15687.15687,0,0,1,.0428-.0347.38782.38782,0,0,1,.04994-.02431c.01945-.00738.059-.021.11834-.04086a.87645.87645,0,0,0,.1203-.04669v-.0642a.261.261,0,0,0-.00357-.03242.1337.1337,0,0,0-.01524-.0454.12765.12765,0,0,0-.03664-.04182.1093.1093,0,0,0-.06712-.01784.15086.15086,0,0,0-.05544.01.1016.1016,0,0,0-.036.02108.18087.18087,0,0,0,.00616.03826.193.193,0,0,1,.00616.04669.05569.05569,0,0,1-.02043.0415.08029.08029,0,0,1-.05674.01881.05325.05325,0,0,1-.04766-.023.09094.09094,0,0,1,.00583-.10862.21453.21453,0,0,1,.0548-.04864A.30109.30109,0,0,1,2.77,16.6774a.27826.27826,0,0,1,.08107-.01265.53312.53312,0,0,1,.095.00746.17363.17363,0,0,1,.0736.0321.14847.14847,0,0,1,.05026.06517.27724.27724,0,0,1,.01718.106q0,.09278-.00194.16439t-.00195.15661a.07929.07929,0,0,0,.00876.04021.07131.07131,0,0,0,.02691.02529.066.066,0,0,0,.0308.00648l.04313.00065Zm-.22632-.3424q-.055.0163-.09663.03186a.39634.39634,0,0,0-.07717.039.17847.17847,0,0,0-.05123.05228.13382.13382,0,0,0-.0188.07182.10139.10139,0,0,0,.0282.07928.10318.10318,0,0,0,.07166.02537.14636.14636,0,0,0,.08106-.02245.23376.23376,0,0,0,.059-.05293Z" fill="#231815"/><path d="M3.778,17.0091a.16024.16024,0,0,1,.04086.05382.17446.17446,0,0,1,.01426.07458.18143.18143,0,0,1-.06647.14526.25666.25666,0,0,1-.17217.05642.25966.25966,0,0,1-.10278-.02011.28313.28313,0,0,1-.06712-.037l-.013.04215H3.363l-.00648-.22243h.04474a.25736.25736,0,0,0,.022.05926.29368.29368,0,0,0,.04086.06112.22466.22466,0,0,0,.06063.04815.16159.16159,0,0,0,.07944.01953.145.145,0,0,0,.096-.02837.1.1,0,0,0,.03373-.08122.09758.09758,0,0,0-.0107-.047.10247.10247,0,0,0-.03146-.03469.24719.24719,0,0,0-.05252-.02691c-.02075-.008-.04378-.01589-.06939-.02367a.6578.6578,0,0,1-.06777-.025.27427.27427,0,0,1-.06387-.03729A.18463.18463,0,0,1,3.39154,16.93a.16039.16039,0,0,1-.01816-.07782.175.175,0,0,1,.05836-.13293.22.22,0,0,1,.15629-.05448.31816.31816,0,0,1,.07684.00973.26342.26342,0,0,1,.06388.02335l.01491-.03373h.04669l.00973.20557H3.75534a.20591.20591,0,0,0-.05869-.11235.1526.1526,0,0,0-.10992-.04328.12279.12279,0,0,0-.08365.02675.08333.08333,0,0,0-.03048.06468.106.106,0,0,0,.01005.04864.09143.09143,0,0,0,.03015.03307.25.25,0,0,0,.049.02432q.02967.01131.073.02562a.62978.62978,0,0,1,.08073.03177A.26357.26357,0,0,1,3.778,17.0091Z" fill="#231815"/><path d="M4.45165,17.0091a.16449.16449,0,0,1,.04085.05382.17689.17689,0,0,1,.01427.07458.18194.18194,0,0,1-.06647.14526.28413.28413,0,0,1-.275.03631.27662.27662,0,0,1-.06712-.037l-.013.04215H4.03662l-.00649-.22243h.04475a.24242.24242,0,0,0,.02205.05926.28123.28123,0,0,0,.04085.06112.22222.22222,0,0,0,.06063.04815.16073.16073,0,0,0,.07944.01953.1453.1453,0,0,0,.096-.02837.10048.10048,0,0,0,.03372-.08122.09758.09758,0,0,0-.0107-.047.10411.10411,0,0,0-.03145-.03469.24752.24752,0,0,0-.05253-.02691q-.03113-.012-.06939-.02367a.63147.63147,0,0,1-.06776-.025.26766.26766,0,0,1-.06388-.03729A.18015.18015,0,0,1,4.06515,16.93a.15862.15862,0,0,1-.01816-.07782.175.175,0,0,1,.05837-.13293.21974.21974,0,0,1,.15628-.05448.32029.32029,0,0,1,.07685.00973.26867.26867,0,0,1,.06387.02335l.01492-.03373H4.464l.00972.20557H4.429a.207.207,0,0,0-.05869-.11235.15313.15313,0,0,0-.10992-.04328.12223.12223,0,0,0-.08365.02675.08282.08282,0,0,0-.03048.06468.10394.10394,0,0,0,.01.04864.08862.08862,0,0,0,.03016.03307.24526.24526,0,0,0,.049.02432q.02942.01131.07295.02562a.62993.62993,0,0,1,.08074.03177A.26729.26729,0,0,1,4.45165,17.0091Z" fill="#231815"/><path d="M5.19254,16.76527a.107.107,0,0,1-.01621.05869.05473.05473,0,0,1-.04994.02561.0759.0759,0,0,1-.05544-.01881.05759.05759,0,0,1-.01913-.0415.141.141,0,0,1,.00227-.02594L5.0583,16.74a.1435.1435,0,0,0-.07133.02464.2122.2122,0,0,0-.06939.07v.37223a.06966.06966,0,0,0,.00876.037.05338.05338,0,0,0,.02756.0214.17707.17707,0,0,0,.04182.00973l.04443.00454v.0428H4.70293v-.0428l.03081-.0026a.11792.11792,0,0,0,.02756-.00519.04648.04648,0,0,0,.02691-.02042.07247.07247,0,0,0,.00875-.03786V16.819a.08944.08944,0,0,0-.0094-.03956.07722.07722,0,0,0-.02626-.031.08612.08612,0,0,0-.02918-.01135.266.266,0,0,0-.03632-.00486v-.0428l.2127-.01427.00908.00908v.09014h.00324a.29363.29363,0,0,1,.08949-.07977.18953.18953,0,0,1,.09014-.02723.088.088,0,0,1,.06647.02658A.09808.09808,0,0,1,5.19254,16.76527Z" fill="#231815"/><path d="M5.97056,16.99613a.42259.42259,0,0,1-.0214.13261.31537.31537,0,0,1-.06112.11057.2844.2844,0,0,1-.10376.07717.3338.3338,0,0,1-.13245.02529.29949.29949,0,0,1-.11624-.023.29336.29336,0,0,1-.09809-.06712.32207.32207,0,0,1-.06711-.106.375.375,0,0,1-.025-.14039.34876.34876,0,0,1,.08722-.24513.31962.31962,0,0,1,.45053-.00486A.33232.33232,0,0,1,5.97056,16.99613Zm-.13424.0013a.58142.58142,0,0,0-.00973-.10279.32472.32472,0,0,0-.02934-.09176.178.178,0,0,0-.05447-.06452.13764.13764,0,0,0-.08252-.02432.14529.14529,0,0,0-.08544.02464.18181.18181,0,0,0-.05755.06744.30115.30115,0,0,0-.02918.09014.58928.58928,0,0,0-.00843.09792.6079.6079,0,0,0,.01.11511.328.328,0,0,0,.0321.09435.18387.18387,0,0,0,.0556.06518.13954.13954,0,0,0,.08285.02367.14454.14454,0,0,0,.12856-.07847A.41863.41863,0,0,0,5.83632,16.99743Z" fill="#231815"/><path d="M6.786,16.99613a.42259.42259,0,0,1-.0214.13261.31509.31509,0,0,1-.061.11057.28492.28492,0,0,1-.10392.07717.33328.33328,0,0,1-.13245.02529.29946.29946,0,0,1-.11624-.023.29273.29273,0,0,1-.09793-.06712.32.32,0,0,1-.06728-.106.37836.37836,0,0,1-.025-.14039.34886.34886,0,0,1,.08738-.24513.31963.31963,0,0,1,.45054-.00486A.33226.33226,0,0,1,6.786,16.99613Zm-.13424.0013a.58142.58142,0,0,0-.00973-.10279.32485.32485,0,0,0-.02918-.09176.18.18,0,0,0-.05463-.06452.1373.1373,0,0,0-.08252-.02432.14563.14563,0,0,0-.08544.02464.18144.18144,0,0,0-.05739.06744.29708.29708,0,0,0-.02935.09014.608.608,0,0,0-.00843.09792.62132.62132,0,0,0,.01006.11511.333.333,0,0,0,.03226.09435.18513.18513,0,0,0,.05544.06518.1399.1399,0,0,0,.08285.02367.14477.14477,0,0,0,.12872-.07847A.41872.41872,0,0,0,6.65179,16.99743Z" fill="#231815"/><path d="M7.37258,17.29443q-.04208.01751-.07976.02951a.305.305,0,0,1-.09209.012.13825.13825,0,0,1-.11316-.04053.17837.17837,0,0,1-.03275-.11445v-.43319H6.93939V16.6855h.118v-.19908h.118v.19908H7.359v.06226H7.17674v.35731a.6383.6383,0,0,0,.00292.06712.12568.12568,0,0,0,.01394.047.06712.06712,0,0,0,.03113.02853.1335.1335,0,0,0,.05577.00973q.01629,0,.04766-.00292a.20971.20971,0,0,0,.04442-.00746Z" fill="#231815"/><path d="M7.958,17.0091a.16449.16449,0,0,1,.04085.05382.17674.17674,0,0,1,.01427.07458.18194.18194,0,0,1-.06647.14526.28413.28413,0,0,1-.275.03631.27631.27631,0,0,1-.06711-.037l-.013.04215H7.543l-.00649-.22243h.04475a.24242.24242,0,0,0,.02205.05926.28123.28123,0,0,0,.04085.06112.22227.22227,0,0,0,.06064.04815.16067.16067,0,0,0,.07944.01953.14527.14527,0,0,0,.096-.02837.10048.10048,0,0,0,.03372-.08122.09747.09747,0,0,0-.0107-.047.10411.10411,0,0,0-.03145-.03469.24752.24752,0,0,0-.05253-.02691c-.02075-.008-.04393-.01589-.06938-.02367a.63079.63079,0,0,1-.06777-.025.26766.26766,0,0,1-.06388-.03729A.18015.18015,0,0,1,7.5715,16.93a.15862.15862,0,0,1-.01816-.07782.175.175,0,0,1,.05837-.13293.21975.21975,0,0,1,.15628-.05448.32029.32029,0,0,1,.07685.00973.26851.26851,0,0,1,.06387.02335l.01492-.03373h.04669l.00973.20557H7.9353a.20688.20688,0,0,0-.05869-.11235A.15312.15312,0,0,0,7.7667,16.714a.12225.12225,0,0,0-.08366.02675.08282.08282,0,0,0-.03048.06468.10407.10407,0,0,0,.01.04864.08862.08862,0,0,0,.03016.03307.24526.24526,0,0,0,.049.02432q.02943.01131.073.02562a.62935.62935,0,0,1,.08074.03177A.26729.26729,0,0,1,7.958,17.0091Z" fill="#231815"/><path d="M9.05118,17.34436a.3972.3972,0,0,1-.1579-.03242.40529.40529,0,0,1-.13375-.09346.45441.45441,0,0,1-.09193-.14891.53889.53889,0,0,1-.03437-.19827.56552.56552,0,0,1,.03372-.20022.46852.46852,0,0,1,.09322-.15475.41.41,0,0,1,.13927-.0993.42575.42575,0,0,1,.17168-.035.41993.41993,0,0,1,.12321.01686.45858.45858,0,0,1,.1049.04734l.02658-.04409h.05188l.00584.32813H9.33035a.78706.78706,0,0,0-.03112-.10408.39857.39857,0,0,0-.04864-.095.2346.2346,0,0,0-.07377-.06907.1906.1906,0,0,0-.09775-.025A.25235.25235,0,0,0,8.962,16.465a.26808.26808,0,0,0-.09354.08244.40591.40591,0,0,0-.05885.13367.71038.71038,0,0,0-.0214.18109.55581.55581,0,0,0,.02237.162.41729.41729,0,0,0,.06372.12945.30793.30793,0,0,0,.09808.08633.25952.25952,0,0,0,.12678.03113.27275.27275,0,0,0,.09646-.01654.25873.25873,0,0,0,.07636-.04377.33585.33585,0,0,0,.05707-.06485.36112.36112,0,0,0,.0402-.07912l.04864.02335a.3629.3629,0,0,1-.36672.2542Z" fill="#231815"/><path d="M10.26709,17.31064l-.20881.01427-.00973-.00908v-.08106h-.00389l-.035.03469a.2457.2457,0,0,1-.04458.0334.28833.28833,0,0,1-.05642.02659.25276.25276,0,0,1-.077.00908.15542.15542,0,0,1-.12905-.05537.25229.25229,0,0,1-.04442-.161v-.30576a.07825.07825,0,0,0-.00891-.03916.08028.08028,0,0,0-.02562-.02756.082.082,0,0,0-.02934-.01134.29211.29211,0,0,0-.03729-.00487v-.0428l.21335-.01556.00973.00908v.44421a.15288.15288,0,0,0,.03112.1044.09639.09639,0,0,0,.07458.035.17117.17117,0,0,0,.06355-.011.17881.17881,0,0,0,.04669-.02594.219.219,0,0,0,.03081-.02878.15742.15742,0,0,0,.02042-.02821v-.362a.07814.07814,0,0,0-.00908-.03794.08432.08432,0,0,0-.02529-.02813.07194.07194,0,0,0-.03469-.0094l-.05156-.00292v-.0428l.23281-.01556.00973.00908v.50719a.07408.07408,0,0,0,.00908.03762.08085.08085,0,0,0,.02529.0265.07033.07033,0,0,0,.02788.0094.32354.32354,0,0,0,.03567.00292Z" fill="#231815"/><path d="M10.7447,17.32232h-.31192v-.0428l.03177-.00292a.14886.14886,0,0,0,.02789-.00487.04772.04772,0,0,0,.02723-.02042.07153.07153,0,0,0,.00908-.038v-.74106a.0991.0991,0,0,0-.01-.04385.08363.08363,0,0,0-.02626-.0321.1348.1348,0,0,0-.0428-.01427.40144.40144,0,0,0-.04994-.00778v-.0415l.24059-.01427.00908.00973v.8774a.07324.07324,0,0,0,.00843.03729.05424.05424,0,0,0,.02724.02237.157.157,0,0,0,.02821.00973.2068.2068,0,0,0,.03145.00454Z" fill="#231815"/><path d="M11.31974,17.29443q-.04208.01751-.07976.02951a.30567.30567,0,0,1-.09209.012.138.138,0,0,1-.11316-.04053A.17742.17742,0,0,1,11.002,17.181v-.43319h-.11543V16.6855h.118v-.19908h.118v.19908h.18352v.06226H11.1239v.35731a.6383.6383,0,0,0,.00292.06712.12568.12568,0,0,0,.01394.047.06712.06712,0,0,0,.03113.02853.133.133,0,0,0,.05577.00973q.01629,0,.04766-.00292a.21174.21174,0,0,0,.04442-.00746Z" fill="#231815"/><path d="M12.16828,17.31064l-.20881.01427-.00973-.00908v-.08106h-.00389l-.035.03469a.2457.2457,0,0,1-.04458.0334.28807.28807,0,0,1-.05642.02659.25271.25271,0,0,1-.077.00908.15539.15539,0,0,1-.129-.05537.25223.25223,0,0,1-.04442-.161v-.30576a.07989.07989,0,0,0-.00876-.03916.084.084,0,0,0-.02578-.02756.08291.08291,0,0,0-.0295-.01134.28954.28954,0,0,0-.03713-.00487v-.0428l.21335-.01556.00973.00908v.44421a.15288.15288,0,0,0,.03113.1044.09636.09636,0,0,0,.07457.035.17117.17117,0,0,0,.06355-.011.179.179,0,0,0,.0467-.02594.21893.21893,0,0,0,.0308-.02878.158.158,0,0,0,.02043-.02821v-.362a.07814.07814,0,0,0-.00908-.03794.08443.08443,0,0,0-.02529-.02813.072.072,0,0,0-.0347-.0094l-.05155-.00292v-.0428l.2328-.01556.00973.00908v.50719a.07408.07408,0,0,0,.00908.03762.08106.08106,0,0,0,.02529.0265.07033.07033,0,0,0,.02788.0094.32375.32375,0,0,0,.03567.00292Z" fill="#231815"/><path d="M12.8359,16.76527a.107.107,0,0,1-.01622.05869.05489.05489,0,0,1-.04993.02561.07587.07587,0,0,1-.05544-.01881.057.057,0,0,1-.01914-.0415.14192.14192,0,0,1,.00227-.02594l.00422-.02334a.14344.14344,0,0,0-.07133.02464.2107.2107,0,0,0-.06939.07v.37223a.06976.06976,0,0,0,.00875.037.05347.05347,0,0,0,.02756.0214.17729.17729,0,0,0,.04183.00973l.04442.00454v.0428h-.33721v-.0428l.0308-.0026a.11956.11956,0,0,0,.02756-.00519.0465.0465,0,0,0,.02692-.02042.07257.07257,0,0,0,.00875-.03786V16.819a.08944.08944,0,0,0-.0094-.03956.07992.07992,0,0,0-.02627-.031.08865.08865,0,0,0-.02918-.01135.26559.26559,0,0,0-.03631-.00486v-.0428l.2127-.01427.00908.00908v.09014h.00324a.28977.28977,0,0,1,.08949-.07977.18947.18947,0,0,1,.09014-.02723.088.088,0,0,1,.06647.02658A.09879.09879,0,0,1,12.8359,16.76527Z" fill="#231815"/><path d="M13.59576,17.31064q-.03041.01107-.0535.01784a.18433.18433,0,0,1-.05221.00681.12708.12708,0,0,1-.08073-.02367.10967.10967,0,0,1-.03859-.06907h-.00389a.31527.31527,0,0,1-.09046.07134.25349.25349,0,0,1-.1164.02464.16473.16473,0,0,1-.11835-.0441.15179.15179,0,0,1-.04637-.11543.19533.19533,0,0,1,.01038-.06614.15983.15983,0,0,1,.03112-.05253.157.157,0,0,1,.0428-.0347.37733.37733,0,0,1,.04994-.02431q.02917-.01107.11835-.04086a.87671.87671,0,0,0,.12029-.04669v-.0642a.261.261,0,0,0-.00357-.03242.13725.13725,0,0,0-.01524-.0454.12952.12952,0,0,0-.03664-.04182.10927.10927,0,0,0-.06711-.01784.14963.14963,0,0,0-.05545.01.1016.1016,0,0,0-.036.02108.18087.18087,0,0,0,.00616.03826.2013.2013,0,0,1,.00616.04669.05569.05569,0,0,1-.02043.0415.08054.08054,0,0,1-.05674.01881.05325.05325,0,0,1-.04766-.023.09077.09077,0,0,1-.01524-.05156.09172.09172,0,0,1,.02107-.05706.21187.21187,0,0,1,.0548-.04864.29825.29825,0,0,1,.07069-.0308.27733.27733,0,0,1,.08106-.01265.53447.53447,0,0,1,.095.00746.17363.17363,0,0,1,.0736.0321.14964.14964,0,0,1,.05026.06517.27724.27724,0,0,1,.01718.106q0,.09278-.00194.16439t-.002.15661a.07929.07929,0,0,0,.00876.04021.07015.07015,0,0,0,.02691.02529.06553.06553,0,0,0,.0308.00648l.04313.00065Zm-.22632-.3424c-.03681.01087-.06891.02148-.09663.03186a.39187.39187,0,0,0-.07717.039.1765.1765,0,0,0-.05123.05228.13382.13382,0,0,0-.0188.07182.10135.10135,0,0,0,.02821.07928.10286.10286,0,0,0,.07165.02537.14673.14673,0,0,0,.08106-.02245.23676.23676,0,0,0,.059-.05293Z" fill="#231815"/><path d="M14.05845,17.32232h-.31192v-.0428l.03178-.00292a.14889.14889,0,0,0,.02788-.00487.04774.04774,0,0,0,.02724-.02042.07162.07162,0,0,0,.00908-.038v-.74106a.0991.0991,0,0,0-.01006-.04385.08354.08354,0,0,0-.02626-.0321.1347.1347,0,0,0-.0428-.01427.40161.40161,0,0,0-.04993-.00778v-.0415l.24058-.01427.00908.00973v.8774a.07324.07324,0,0,0,.00843.03729.05432.05432,0,0,0,.02724.02237.15755.15755,0,0,0,.02821.00973.207.207,0,0,0,.03145.00454Z" fill="#231815"/><path d="M15.62794,17.32232H15.246v-.04605l.04507-.00389a.13369.13369,0,0,0,.04053-.00778.05463.05463,0,0,0,.02853-.02367.08306.08306,0,0,0,.00908-.04118v-.32748h-.43254v.32035a.08722.08722,0,0,0,.00746.03826.06418.06418,0,0,0,.0295.02724.164.164,0,0,0,.03924.01167.28589.28589,0,0,0,.04442.00648v.04605h-.382v-.04605l.04507-.00389a.13355.13355,0,0,0,.04053-.00778.05459.05459,0,0,0,.02853-.02367.08306.08306,0,0,0,.00908-.04118V16.5357a.084.084,0,0,0-.00843-.03793.05906.05906,0,0,0-.02918-.02691.233.233,0,0,0-.04247-.01492.24968.24968,0,0,0-.04313-.00778v-.046h.382v.046a.28063.28063,0,0,0-.04442.00584.31669.31669,0,0,0-.03924.00972.04641.04641,0,0,0-.0295.02594.102.102,0,0,0-.00746.03956v.28533h.43254V16.5357a.08411.08411,0,0,0-.00843-.03793.05911.05911,0,0,0-.02918-.02691.23315.23315,0,0,0-.04248-.01492.24959.24959,0,0,0-.04312-.00778v-.046h.38195v.046a.28063.28063,0,0,0-.04442.00584.316.316,0,0,0-.03923.00972.04645.04645,0,0,0-.02951.02594.10213.10213,0,0,0-.00745.03956v.6634a.08736.08736,0,0,0,.00745.03826.06426.06426,0,0,0,.02951.02724.16386.16386,0,0,0,.03923.01167.28606.28606,0,0,0,.04442.00648Z" fill="#231815"/><path d="M16.52577,17.31064l-.20881.01427-.00973-.00908v-.08106h-.00389l-.035.03469a.2457.2457,0,0,1-.04458.0334.28833.28833,0,0,1-.05642.02659.25271.25271,0,0,1-.077.00908.15542.15542,0,0,1-.129-.05537.25229.25229,0,0,1-.04442-.161v-.30576a.07989.07989,0,0,0-.00875-.03916.084.084,0,0,0-.02578-.02756.08291.08291,0,0,0-.0295-.01134.28954.28954,0,0,0-.03713-.00487v-.0428l.21335-.01556.00973.00908v.44421a.15283.15283,0,0,0,.03113.1044.09636.09636,0,0,0,.07457.035.17117.17117,0,0,0,.06355-.011.17881.17881,0,0,0,.04669-.02594.21847.21847,0,0,0,.03081-.02878.15742.15742,0,0,0,.02042-.02821v-.362a.07825.07825,0,0,0-.00907-.03794.08435.08435,0,0,0-.0253-.02813.07194.07194,0,0,0-.03469-.0094l-.05155-.00292v-.0428l.2328-.01556.00973.00908v.50719a.07408.07408,0,0,0,.00908.03762.08106.08106,0,0,0,.02529.0265.07033.07033,0,0,0,.02788.0094.32375.32375,0,0,0,.03567.00292Z" fill="#231815"/><path d="M17.35307,17.002a.34256.34256,0,0,1-.09078.24189.27962.27962,0,0,1-.21076.09792.33948.33948,0,0,1-.10343-.01621.4397.4397,0,0,1-.09566-.04345l-.048.07458-.04021-.00908c.00211-.032.00373-.07053.00454-.11551s.0013-.08844.0013-.13043v-.63333a.10666.10666,0,0,0-.01006-.04417.07006.07006,0,0,0-.02561-.03178.10362.10362,0,0,0-.04118-.01265c-.01929-.00283-.03469-.00462-.04637-.00551v-.0415l.23476-.01427.00907.00973v.42151l.00454.0013a.27518.27518,0,0,1,.08787-.0642.22781.22781,0,0,1,.09371-.0214.24807.24807,0,0,1,.19714.09338A.36358.36358,0,0,1,17.35307,17.002Zm-.13553.00454a.47625.47625,0,0,0-.01038-.09792.27922.27922,0,0,0-.03242-.08689.18151.18151,0,0,0-.05771-.061.153.153,0,0,0-.0856-.02335.16829.16829,0,0,0-.07944.01784.2168.2168,0,0,0-.06129.04831v.37223a.15678.15678,0,0,0,.01524.03631.1623.1623,0,0,0,.0749.06907.14377.14377,0,0,0,.06031.01135.14642.14642,0,0,0,.12775-.07653A.388.388,0,0,0,17.21754,17.0065Z" fill="#231815"/><path d="M18.72283,17.04866l-.01945.27366h-.71917v-.04605l.04507-.00454a.15516.15516,0,0,0,.04118-.00843.05592.05592,0,0,0,.02821-.02464.08688.08688,0,0,0,.00875-.0415V16.5383A.09478.09478,0,0,0,18.1,16.49939a.05632.05632,0,0,0-.02951-.02724.2178.2178,0,0,0-.04183-.01524.24546.24546,0,0,0-.04442-.00875v-.046h.38844v.046a.29842.29842,0,0,0-.047.00648.34945.34945,0,0,0-.04183.01038.048.048,0,0,0-.03015.02659.10149.10149,0,0,0-.00811.0402v.618a.40911.40911,0,0,0,.00421.06647.05908.05908,0,0,0,.01978.03664.089.089,0,0,0,.04442.01524.73849.73849,0,0,0,.08269.00356c.016,0,.03258-.0004.04993-.00129a.43589.43589,0,0,0,.04928-.00519.2537.2537,0,0,0,.04183-.0107.06589.06589,0,0,0,.02821-.01719.578.578,0,0,0,.06193-.09046.65323.65323,0,0,0,.049-.09824Z" fill="#231815"/><path d="M19.17839,17.32232h-.30867v-.0428l.0308-.0026a.11956.11956,0,0,0,.02756-.00519.04648.04648,0,0,0,.02691-.02042.07247.07247,0,0,0,.00876-.03786V16.819a.07694.07694,0,0,0-.00941-.03794.08471.08471,0,0,0-.02626-.02877.11988.11988,0,0,0-.03567-.0133.27077.27077,0,0,0-.0428-.0068v-.0428l.22568-.01427.00907.00908v.52138a.07333.07333,0,0,0,.00876.03761.05126.05126,0,0,0,.02723.02205l.02773.0094a.178.178,0,0,0,.03031.00487Zm-.08106-.89945a.09449.09449,0,0,1-.02431.06452.07674.07674,0,0,1-.06.02756.07575.07575,0,0,1-.05739-.02626.08588.08588,0,0,1-.02432-.06.08939.08939,0,0,1,.02432-.06225.07529.07529,0,0,1,.05739-.02659.07986.07986,0,0,1,.06063.025A.08193.08193,0,0,1,19.09733,16.42287Z" fill="#231815"/><path d="M20.451,17.32232h-.31127v-.0428l.03016-.0026a.11706.11706,0,0,0,.02691-.00519.04648.04648,0,0,0,.02691-.02042.073.073,0,0,0,.00875-.03794v-.33008a.157.157,0,0,0-.0308-.10408.0966.0966,0,0,0-.07684-.03664.17971.17971,0,0,0-.05966.00973.1871.1871,0,0,0-.05123.02723.16458.16458,0,0,0-.03146.03081.29582.29582,0,0,0-.01913.02756v.369a.07873.07873,0,0,0,.00779.03728.05061.05061,0,0,0,.02658.02238l.02692.00875a.19408.19408,0,0,0,.03145.00422v.0428h-.30479v-.0428l.02886-.0026a.116.116,0,0,0,.02561-.00519.04645.04645,0,0,0,.02691-.02042.073.073,0,0,0,.00876-.03794v-.33008a.15789.15789,0,0,0-.0308-.10408.09725.09725,0,0,0-.07717-.03664.17323.17323,0,0,0-.05966.01.19627.19627,0,0,0-.0514.02756.15384.15384,0,0,0-.03193.0321l-.01946.02692v.36639a.07054.07054,0,0,0,.00908.037.05639.05639,0,0,0,.02724.0227.13557.13557,0,0,0,.02788.00973.21792.21792,0,0,0,.03178.00454v.0428H19.3564v-.0428l.03081-.0026a.11977.11977,0,0,0,.02756-.00519.04648.04648,0,0,0,.02691-.02042.07257.07257,0,0,0,.00875-.03786v-.397a.0735.0735,0,0,0-.0094-.03729.0875.0875,0,0,0-.02626-.02813.11043.11043,0,0,0-.03048-.01264.19727.19727,0,0,0-.03761-.00616v-.0428l.214-.01427.00907.00908v.09143h.00454l.03956-.03826a.35127.35127,0,0,1,.04345-.03566.20488.20488,0,0,1,.05674-.02594.252.252,0,0,1,.0736-.01038.17366.17366,0,0,1,.107.0334.19062.19062,0,0,1,.0642.08073L20,16.73965a.33694.33694,0,0,1,.04686-.03664.21257.21257,0,0,1,.05787-.02723.251.251,0,0,1,.07425-.01038.16275.16275,0,0,1,.12808.05318.23991.23991,0,0,1,.04734.16342v.32489a.07873.07873,0,0,0,.00778.03728.05067.05067,0,0,0,.02659.02238.17342.17342,0,0,0,.02951.00875.26794.26794,0,0,0,.03274.00422Z" fill="#231815"/><path d="M20.9366,17.32232h-.30868v-.0428l.0308-.0026a.11956.11956,0,0,0,.02756-.00519.04645.04645,0,0,0,.02691-.02042.07247.07247,0,0,0,.00876-.03786V16.819a.077.077,0,0,0-.0094-.03794.08484.08484,0,0,0-.02627-.02877.11988.11988,0,0,0-.03567-.0133.27084.27084,0,0,0-.04279-.0068v-.0428l.22567-.01427.00908.00908v.52138a.07333.07333,0,0,0,.00875.03761.05132.05132,0,0,0,.02724.02205l.02772.0094a.17794.17794,0,0,0,.03032.00487Zm-.08106-.89945a.0945.0945,0,0,1-.02432.06452.07673.07673,0,0,1-.06.02756.07575.07575,0,0,1-.05739-.02626.08588.08588,0,0,1-.02432-.06.08939.08939,0,0,1,.02432-.06225.07529.07529,0,0,1,.05739-.02659.07988.07988,0,0,1,.06064.025A.082.082,0,0,1,20.85554,16.42287Z" fill="#231815"/><path d="M21.51018,17.29443q-.04207.01751-.07976.02951a.30567.30567,0,0,1-.09209.012.138.138,0,0,1-.11316-.04053.17742.17742,0,0,1-.03275-.11445v-.43319H21.077V16.6855h.118v-.19908h.118v.19908h.18352v.06226h-.18222v.35731a.6383.6383,0,0,0,.00292.06712.12568.12568,0,0,0,.01394.047.06712.06712,0,0,0,.03113.02853.133.133,0,0,0,.05577.00973q.01629,0,.04766-.00292a.21174.21174,0,0,0,.04442-.00746Z" fill="#231815"/><path d="M22.24151,17.17187a.32745.32745,0,0,1-.10765.12191.27108.27108,0,0,1-.155.0454.3155.3155,0,0,1-.13521-.02724A.26553.26553,0,0,1,21.748,17.238a.313.313,0,0,1-.05609-.10894.46018.46018,0,0,1-.01848-.13164.38914.38914,0,0,1,.01978-.12224.34544.34544,0,0,1,.058-.108A.28131.28131,0,0,1,21.843,16.693a.26446.26446,0,0,1,.12289-.02821.29608.29608,0,0,1,.12.02205.21334.21334,0,0,1,.08106.06031.24029.24029,0,0,1,.04442.0856.37515.37515,0,0,1,.01459.107v.0428h-.42346a.50689.50689,0,0,0,.012.11438.27183.27183,0,0,0,.03794.09038.18046.18046,0,0,0,.06614.05942.2042.2042,0,0,0,.09728.0218.17912.17912,0,0,0,.09954-.02707.267.267,0,0,0,.08073-.09744Zm-.14332-.24383a.53438.53438,0,0,0-.00616-.07758.23508.23508,0,0,0-.01978-.06914.131.131,0,0,0-.04085-.04856.11152.11152,0,0,0-.06679-.01872.139.139,0,0,0-.11316.05658.26369.26369,0,0,0-.049.15742Z" fill="#231815"/><path d="M23.11534,17.31064l-.22373.01427-.00972-.00908v-.05966l-.00519-.0013a.26557.26557,0,0,1-.08317.06161.23223.23223,0,0,1-.102.024.2421.2421,0,0,1-.10538-.02431.26629.26629,0,0,1-.08836-.06842.33908.33908,0,0,1-.06047-.10765.41164.41164,0,0,1-.02237-.13877.36165.36165,0,0,1,.024-.13165.34571.34571,0,0,1,.066-.10894.29316.29316,0,0,1,.09678-.06939.28138.28138,0,0,1,.11689-.02594.3447.3447,0,0,1,.08787.01135.31283.31283,0,0,1,.07409.02886v-.22284a.132.132,0,0,0-.00908-.04969.0747.0747,0,0,0-.02529-.03412.12684.12684,0,0,0-.049-.01792.64185.64185,0,0,0-.06647-.0081v-.04021l.262-.01427.00972.00973v.86192a.07856.07856,0,0,0,.00876.0385.07574.07574,0,0,0,.02561.02691.08025.08025,0,0,0,.03567.00973l.0428.00259Zm-.23475-.11218v-.37418a.17353.17353,0,0,0-.04588-.072.16848.16848,0,0,0-.0441-.02691.15.15,0,0,0-.05885-.0107.13372.13372,0,0,0-.07149.0201.19077.19077,0,0,0-.058.05771.2992.2992,0,0,0-.03778.09241.51755.51755,0,0,0-.01394.12419.43231.43231,0,0,0,.01038.09889.26032.26032,0,0,0,.03485.08268.18143.18143,0,0,0,.058.05837.155.155,0,0,0,.08382.02205.1511.1511,0,0,0,.08576-.0227A.282.282,0,0,0,22.88059,17.19846Z" fill="#231815"/></svg>