<svg id="圖層_1" data-name="圖層 1" xmlns="http://www.w3.org/2000/svg" viewBox="0 0 24 24"><title>GCH-logo</title><circle cx="12.77594" cy="10.8752" r="5.59233" fill="#c9e5d4"/><circle cx="12.77594" cy="10.8752" r="5.59233" fill="#c9e5d4"/><path d="M7.23052,10.29439a4.20846,4.20846,0,0,0,1.82112,1.77824,1.94335,1.94335,0,0,1-1.92077-.03486,3.69394,3.69394,0,0,1-1.4994-3.09286c1.88285-.17859,3.55766,1.13815,3.41089,2.76069C8.36616,11.30122,7.91548,10.704,7.23052,10.29439Z" fill="#7dc37d"/><path d="M18.04172,12.75184c-.00655.01747-.01528.03494-.02184.05241l.01966-.05241Z" fill="#2b532f"/><path d="M18.03954,12.75184l-.01966.05241c-.03276.08955-.0677.17472-.10264.25989A5.59156,5.59156,0,0,1,10.339,15.90981c-.15724-.083-.31449-.16816-.47173-.2577-.01092-.00655-.02184-.01092-.03276-.01747l-.44334-.30576c.07644-.09609.14851-.19437.22932-.28827a5.13653,5.13653,0,0,1,3.54234-1.85417c.28391-.0262.56564-.10264.95875-.17471a7.76564,7.76564,0,0,0-1.544-.19874c-1.12692,0-2.05509.46736-3.89178,1.87819a3.51,3.51,0,0,1,3.41349-3.76511A9.012,9.012,0,0,1,18.03954,12.75184Z" fill="#2b532f"/><path d="M9.39115,15.32888l.44334.30576c-.27081.60931-.88449,1.91749-1.15312,2.55083-.16816.39311-.43242.6661-.85828.463-.45863-.22058-.33633-.61369-.10483-.94783C8.26861,16.90569,8.78839,16.08234,9.39115,15.32888Z" fill="#2b532f"/></svg>